<mxfile host="Electron" modified="2024-01-24T14:24:19.803Z" agent="Mozilla/5.0 (Macintosh; Intel Mac OS X 10_15_7) AppleWebKit/537.36 (KHTML, like Gecko) draw.io/22.1.21 Chrome/120.0.6099.109 Electron/28.1.0 Safari/537.36" version="22.1.21" etag="az8l9ohWE7KrqHrO6_Gg" type="device">
  <diagram id="pqKDRAmi3_s86vAvQmJZ" name="Basic">
    <mxGraphModel dx="608" dy="1214" grid="1" gridSize="10" guides="1" tooltips="1" connect="1" arrows="1" fold="1" page="1" pageScale="1" pageWidth="850" pageHeight="1100" background="#0D1116" math="0" shadow="0">
      <root>
        <mxCell id="0" />
        <mxCell id="1" parent="0" />
        <mxCell id="3" value="" style="rounded=0;whiteSpace=wrap;html=1;fillColor=#76608a;strokeColor=#432D57;fontColor=#FFFFFF;fontFamily=Iosevka;" parent="1" vertex="1">
          <mxGeometry x="150" y="240" width="40" height="240" as="geometry" />
        </mxCell>
        <mxCell id="4" value="" style="rounded=0;whiteSpace=wrap;html=1;fillColor=#76608a;strokeColor=#432D57;fontColor=#FFFFFF;fontFamily=Iosevka;" parent="1" vertex="1">
          <mxGeometry x="100" y="240" width="40" height="240" as="geometry" />
        </mxCell>
        <mxCell id="5" value="" style="rounded=0;whiteSpace=wrap;html=1;fillColor=#76608a;strokeColor=#432D57;fontColor=#FFFFFF;fontFamily=Iosevka;" parent="1" vertex="1">
          <mxGeometry x="50" y="240" width="40" height="240" as="geometry" />
        </mxCell>
        <mxCell id="7" value="" style="rounded=0;whiteSpace=wrap;html=1;fillColor=#647687;fontColor=#FFFFFF;strokeColor=#314354;fontFamily=Iosevka;" parent="1" vertex="1">
          <mxGeometry x="350" y="240" width="40" height="240" as="geometry" />
        </mxCell>
        <mxCell id="8" value="" style="rounded=0;whiteSpace=wrap;html=1;fillColor=#647687;fontColor=#FFFFFF;strokeColor=#314354;fontFamily=Iosevka;" parent="1" vertex="1">
          <mxGeometry x="300" y="240" width="40" height="240" as="geometry" />
        </mxCell>
        <mxCell id="9" value="" style="rounded=0;whiteSpace=wrap;html=1;fillColor=#647687;fontColor=#FFFFFF;strokeColor=#314354;fontFamily=Iosevka;" parent="1" vertex="1">
          <mxGeometry x="250" y="240" width="40" height="240" as="geometry" />
        </mxCell>
        <mxCell id="10" value="" style="rounded=0;whiteSpace=wrap;html=1;fillColor=#76608a;strokeColor=#432D57;fontColor=#FFFFFF;fontFamily=Iosevka;" parent="1" vertex="1">
          <mxGeometry x="200" y="240" width="20" height="240" as="geometry" />
        </mxCell>
        <mxCell id="11" value="" style="rounded=0;whiteSpace=wrap;html=1;fillColor=#647687;fontColor=#FFFFFF;strokeColor=#314354;fontFamily=Iosevka;" parent="1" vertex="1">
          <mxGeometry x="220" y="240" width="20" height="240" as="geometry" />
        </mxCell>
        <mxCell id="13" value="" style="endArrow=classic;html=1;fontFamily=Iosevka;fontColor=#FFFFFF;" parent="1" edge="1">
          <mxGeometry width="50" height="50" relative="1" as="geometry">
            <mxPoint x="40" y="480" as="sourcePoint" />
            <mxPoint x="40" y="200" as="targetPoint" />
          </mxGeometry>
        </mxCell>
        <mxCell id="14" value="" style="endArrow=classic;html=1;fontFamily=Iosevka;fontColor=#FFFFFF;" parent="1" edge="1">
          <mxGeometry width="50" height="50" relative="1" as="geometry">
            <mxPoint x="40" y="480" as="sourcePoint" />
            <mxPoint x="430" y="480" as="targetPoint" />
          </mxGeometry>
        </mxCell>
        <mxCell id="15" value="Liquidity Amount" style="text;html=1;strokeColor=none;fillColor=none;align=center;verticalAlign=middle;whiteSpace=wrap;rounded=0;fontFamily=Iosevka;fontColor=#FFFFFF;" parent="1" vertex="1">
          <mxGeometry x="10" y="170" width="60" height="30" as="geometry" />
        </mxCell>
        <mxCell id="16" value="Bin" style="text;html=1;strokeColor=none;fillColor=none;align=center;verticalAlign=middle;whiteSpace=wrap;rounded=0;fontFamily=Iosevka;fontColor=#FFFFFF;" parent="1" vertex="1">
          <mxGeometry x="430" y="460" width="40" height="40" as="geometry" />
        </mxCell>
        <mxCell id="17" value="27000" style="text;html=1;strokeColor=none;fillColor=none;align=center;verticalAlign=middle;whiteSpace=wrap;rounded=0;rotation=-90;fontFamily=Iosevka;fontColor=#FFFFFF;" parent="1" vertex="1">
          <mxGeometry x="30.12" y="484.88" width="39.75" height="30" as="geometry" />
        </mxCell>
        <mxCell id="18" value="27010" style="text;html=1;strokeColor=none;fillColor=none;align=center;verticalAlign=middle;whiteSpace=wrap;rounded=0;rotation=-90;fontFamily=Iosevka;fontColor=#FFFFFF;" parent="1" vertex="1">
          <mxGeometry x="80" y="484.88" width="39.75" height="30" as="geometry" />
        </mxCell>
        <mxCell id="19" value="27020" style="text;html=1;strokeColor=none;fillColor=none;align=center;verticalAlign=middle;whiteSpace=wrap;rounded=0;rotation=-90;fontFamily=Iosevka;fontColor=#FFFFFF;" parent="1" vertex="1">
          <mxGeometry x="130" y="484.88" width="39.75" height="30" as="geometry" />
        </mxCell>
        <mxCell id="20" value="27030" style="text;html=1;strokeColor=none;fillColor=none;align=center;verticalAlign=middle;whiteSpace=wrap;rounded=0;rotation=-90;fontFamily=Iosevka;fontColor=#FFFFFF;" parent="1" vertex="1">
          <mxGeometry x="180.25" y="484.88" width="39.75" height="30" as="geometry" />
        </mxCell>
        <mxCell id="21" value="27040" style="text;html=1;strokeColor=none;fillColor=none;align=center;verticalAlign=middle;whiteSpace=wrap;rounded=0;rotation=-90;fontFamily=Iosevka;fontColor=#FFFFFF;" parent="1" vertex="1">
          <mxGeometry x="230" y="484.88" width="39.75" height="30" as="geometry" />
        </mxCell>
        <mxCell id="22" value="27050" style="text;html=1;strokeColor=none;fillColor=none;align=center;verticalAlign=middle;whiteSpace=wrap;rounded=0;rotation=-90;fontFamily=Iosevka;fontColor=#FFFFFF;" parent="1" vertex="1">
          <mxGeometry x="280" y="484.88" width="39.75" height="30" as="geometry" />
        </mxCell>
        <mxCell id="23" value="27060" style="text;html=1;strokeColor=none;fillColor=none;align=center;verticalAlign=middle;whiteSpace=wrap;rounded=0;rotation=-90;fontFamily=Iosevka;fontColor=#FFFFFF;" parent="1" vertex="1">
          <mxGeometry x="330" y="484.88" width="39.75" height="30" as="geometry" />
        </mxCell>
        <mxCell id="24" value="" style="endArrow=classic;html=1;fontFamily=Iosevka;exitX=0.5;exitY=1;exitDx=0;exitDy=0;fontColor=#FFFFFF;" parent="1" source="25" edge="1">
          <mxGeometry width="50" height="50" relative="1" as="geometry">
            <mxPoint x="220" y="190" as="sourcePoint" />
            <mxPoint x="220" y="230" as="targetPoint" />
          </mxGeometry>
        </mxCell>
        <mxCell id="25" value="Current Price" style="text;html=1;strokeColor=none;fillColor=none;align=center;verticalAlign=middle;whiteSpace=wrap;rounded=0;fontFamily=Iosevka;fontColor=#FFFFFF;" parent="1" vertex="1">
          <mxGeometry x="190" y="160" width="60" height="30" as="geometry" />
        </mxCell>
        <mxCell id="27" value="" style="rounded=0;whiteSpace=wrap;html=1;fillColor=#76608a;strokeColor=#432D57;fontColor=#FFFFFF;fontFamily=Iosevka;" parent="1" vertex="1">
          <mxGeometry x="40" y="570" width="20" height="20" as="geometry" />
        </mxCell>
        <mxCell id="28" value="" style="rounded=0;whiteSpace=wrap;html=1;fillColor=#647687;fontColor=#FFFFFF;strokeColor=#314354;fontFamily=Iosevka;" parent="1" vertex="1">
          <mxGeometry x="40" y="530" width="20" height="20" as="geometry" />
        </mxCell>
        <mxCell id="29" value="Asset X" style="text;html=1;strokeColor=none;fillColor=none;align=left;verticalAlign=middle;whiteSpace=wrap;rounded=0;fontFamily=Iosevka;fontColor=#FFFFFF;" parent="1" vertex="1">
          <mxGeometry x="70" y="530" width="60" height="20" as="geometry" />
        </mxCell>
        <mxCell id="30" value="Asset Y" style="text;html=1;strokeColor=none;fillColor=none;align=left;verticalAlign=middle;whiteSpace=wrap;rounded=0;fontFamily=Iosevka;fontColor=#FFFFFF;" parent="1" vertex="1">
          <mxGeometry x="70" y="570" width="60" height="20" as="geometry" />
        </mxCell>
      </root>
    </mxGraphModel>
  </diagram>
</mxfile>
